<?xml version="1.0" standalone="no"?>
<!DOCTYPE svg PUBLIC "-//W3C//DTD SVG 20010904//EN"
 "http://www.w3.org/TR/2001/REC-SVG-20010904/DTD/svg10.dtd">
<svg version="1.0" xmlns="http://www.w3.org/2000/svg"
 width="256.000000pt" height="256.000000pt" viewBox="0 0 256.000000 256.000000"
 preserveAspectRatio="xMidYMid meet">
<metadata>
Created by potrace 1.11, written by Peter Selinger 2001-2013
</metadata>
<g transform="translate(0.000000,256.000000) scale(0.100000,-0.100000)"
fill="#000000" stroke="none">
<path d="M1310 1840 c-74 -110 -139 -208 -145 -217 -5 -10 -14 -22 -20 -29 -5
-7 -62 -91 -125 -187 -63 -96 -121 -178 -128 -181 -32 -14 -16 30 62 179 l85
160 -99 97 c-55 54 -103 98 -107 98 -4 0 -33 -37 -63 -83 -30 -45 -57 -84 -60
-87 -3 -3 -9 -13 -15 -22 -5 -10 -31 -48 -57 -85 -143 -208 -631 -930 -635
-939 -12 -31 28 -19 164 50 295 148 471 225 663 289 148 50 221 68 385 96 103
18 196 25 330 25 157 -1 220 -7 405 -41 116 -21 316 -86 484 -158 73 -31 112
-43 119 -36 9 9 -43 75 -199 251 -41 46 -244 279 -314 360 -30 35 -60 68 -65
74 -6 6 -56 63 -110 126 -55 63 -102 117 -105 120 -3 3 -34 39 -70 80 -36 41
-67 77 -70 80 -3 3 -34 39 -69 80 -65 75 -90 100 -101 100 -3 0 -66 -90 -140
-200z"/>
</g>
</svg>
